<svg width="430" height="126" viewBox="0 0 430 126" fill="none" xmlns="http://www.w3.org/2000/svg">
<path d="M293.881 108.453C294.052 106.196 293.427 104.212 292.189 102.335C290.927 100.424 290.297 98.3597 291.247 96.0832L291.398 95.5651C291.956 93.5139 291.701 91.6187 290.184 90.0456C289.046 88.8615 288.735 87.5033 289.068 85.9409C289.507 83.8876 289.363 81.9838 288.126 80.1428C287.055 78.5452 286.869 76.7815 287.721 74.8915C288.44 73.3051 288.91 71.5918 289.365 69.9034C289.72 68.5878 289.723 67.1948 289.226 65.9144C288.823 64.8701 288.928 63.9221 289.178 62.8941C289.444 61.8098 289.592 60.6902 289.736 59.5814C289.849 58.728 289.565 57.9734 288.928 57.3879C288.091 56.6204 287.801 55.6647 287.94 54.5774C288.107 53.3288 288.348 52.094 287.696 50.8915C287.581 50.6821 287.648 50.3601 287.667 50.0914C287.828 47.9223 287.28 45.9034 286.429 43.9381C285.941 42.8052 285.734 41.6134 285.863 40.3812C286.11 37.9895 285.959 35.6029 285.544 33.2593C285.095 30.7386 284.389 28.2686 283.858 25.7612C283.672 24.894 283.552 23.9816 283.606 23.1037C283.715 21.313 283.93 19.5253 284.169 17.7428C284.459 15.5948 284.985 13.5118 285.911 11.5306C286.8 9.61396 287.624 7.66505 288.448 5.71871C288.744 5.01533 288.996 4.28788 289.173 3.54666C289.388 2.6554 289.377 1.75597 288.838 0.945536C288.121 -0.13103 287.176 -0.332241 286.236 0.56977C285.472 1.31313 284.747 2.16183 284.234 3.0905C283.225 4.91602 282.065 6.60697 280.666 8.15088C279.691 9.22744 279.276 10.5108 279.216 11.9765C279.106 14.8248 278.456 17.4934 276.393 19.6487C275.804 20.2635 275.289 20.9562 274.814 21.6647C274.336 22.3681 273.834 23.0955 273.563 23.8875C272.916 25.753 272.213 27.6323 271.882 29.5704C271.445 32.15 270.768 34.6471 270.084 37.1653C269.515 39.2565 268.543 40.9745 267.077 42.4836C266.148 43.4394 265.498 44.5723 265.093 45.823C264.607 47.3209 264.183 48.8351 263.778 50.3575C263.595 51.0501 263.469 51.7669 263.402 52.478C263.09 55.8818 262.843 59.2916 262.497 62.6873C262.414 63.4926 262.487 64.3868 261.928 65.1169L261.689 64.9079C260.798 63.6809 260.691 62.2608 260.554 60.811C260.237 57.4124 259.891 54.0219 260.027 50.5991C260.068 49.5656 260.027 48.5294 260.059 47.4958C260.086 46.6502 259.732 46.022 259.093 45.5173C258.849 45.3268 258.596 45.1497 258.314 44.9399C258.365 44.3036 258.416 43.678 258.465 43.0554C258.58 41.536 258.373 40.1241 257.391 38.8489C257.039 38.3979 256.886 37.6838 256.892 37.0931C256.905 35.5685 257.047 34.0409 257.169 32.5185C257.262 31.2566 256.808 30.2312 255.928 29.3645C255.703 29.1469 255.41 28.9698 255.249 28.7148C254.997 28.3176 254.631 27.8584 254.656 27.4452C254.733 25.9714 254.862 24.4868 255.149 23.0427C255.375 21.9042 255.893 20.8276 256.218 19.7055C256.803 17.6757 257.415 15.6546 257.876 13.5956C258.113 12.5431 257.589 11.8075 256.703 11.4081C255.855 11.0186 255.146 11.1123 254.467 12.0388C253.299 13.6283 252.206 15.2844 251.213 16.9835C250.775 17.7376 250.596 18.6612 250.4 19.5314C250.075 20.9919 249.726 22.4442 248.636 23.55C247.457 24.7474 246.813 26.2049 246.394 27.7969C246.327 28.06 246.192 28.3068 246.037 28.6882C245.301 26.793 245.001 26.6077 243.406 26.9886C243.35 26.7311 243.329 26.4598 243.229 26.2208C242.786 25.1498 241.944 24.9834 241.149 25.8394C240.816 26.1941 240.478 26.6017 240.314 27.0501C239.699 28.7389 239.079 30.4303 238.598 32.1561C238.121 33.8874 237.879 35.6837 237.415 37.4177C236.389 41.2351 235.635 45.1329 233.989 48.768C233.788 49.2109 233.712 49.7156 233.621 50.1989C233.144 52.8004 233.216 55.3882 233.766 57.9734C234.424 61.0497 234.36 64.1422 233.879 67.2352C233.573 69.2348 232.4 70.7783 231.136 72.2577C229.133 74.5957 228.258 77.2854 228.508 80.3646C228.628 81.8626 228.945 83.2861 229.549 84.6632C230.597 87.0412 230.983 89.4759 230.035 91.9971C229.877 92.4163 229.761 92.8621 229.708 93.3045C229.565 94.4215 229.522 95.517 230.03 96.6094C230.317 97.235 230.446 97.9865 230.451 98.6843C230.47 101.431 230.405 104.175 230.4 106.921C230.397 107.406 230.488 107.906 230.62 108.376C230.806 109.058 231.203 109.616 231.931 109.785C232.719 109.968 233.203 109.452 233.611 108.897C234.341 107.901 234.856 106.8 234.98 105.562C235.206 103.337 235.936 101.281 236.805 99.2428C237.198 98.3146 237.359 97.2483 237.425 96.2337C237.554 94.2418 237.117 92.2984 236.703 90.3599C236.601 89.8848 236.526 89.3663 236.609 88.8968C237.02 86.5854 237.904 84.4456 239.662 82.8678C241.109 81.5603 241.71 80.0835 241.461 78.1995C241.404 77.7511 241.439 77.2893 241.345 76.8516C241.047 75.496 241.224 74.1886 241.527 72.8515C241.941 71.0126 242.408 69.163 242.561 67.2919C242.816 64.1852 243.347 61.1468 244.078 58.1291C244.588 56.0349 244.596 53.957 243.85 51.8872C243.125 49.8738 243.189 47.8338 243.89 45.7963C244.239 44.7786 244.432 43.7102 244.768 42.6874C245.138 41.5545 245.396 40.352 246.449 39.2002C246.534 39.8528 246.652 40.2742 246.634 40.6848C246.561 42.0326 246.467 43.3775 246.333 44.7146C246.164 46.4515 246.535 47.9413 248.075 48.9589C248.76 49.4069 249.112 50.0544 249.244 50.8489C249.38 51.6465 249.78 52.398 250.465 52.7123C252.086 53.4612 252.357 54.8542 252.508 56.3659L252.548 56.7683C252.868 59.458 253.34 62.0811 254.677 64.5184C255.217 65.5012 255.289 66.7494 255.528 67.8848C255.689 68.6286 255.622 69.4476 255.906 70.1321C256.467 71.4929 256.374 72.8437 256.231 74.2445C255.939 77.2274 256.744 78.9506 259.385 79.4742C260.038 79.6028 260.403 80.0005 260.465 80.6742C260.532 81.3428 260.62 82.0109 260.707 82.6794C260.932 84.4246 261.204 86.1641 262.293 87.6298C262.929 88.4862 263.742 88.9806 264.857 88.7226C265.775 88.5077 266.535 87.5708 266.637 86.4302C266.733 85.3992 266.817 84.3575 266.758 83.3295C266.596 80.5267 267.418 78.0116 268.752 75.5953C269.134 74.9053 269.434 74.1108 269.541 73.3317C269.735 71.9116 269.802 70.4679 269.845 69.031C269.923 66.4381 270.39 64.0141 272.476 62.2019L272.747 61.9009C274.621 59.3346 275.681 56.5615 275.024 53.3185C274.521 50.8274 274.954 48.4004 275.617 46.0005C275.746 45.5306 275.939 45.077 276.106 44.6153C276.334 45.1686 276.334 45.6626 276.334 46.1562C276.337 47.6812 276.804 48.9778 278.116 49.888C278.444 50.1159 278.721 50.4276 278.986 50.7333C279.636 51.4878 279.982 52.3387 279.697 53.3482C279.434 54.3009 279.169 55.2515 278.878 56.1991C278.315 58.0435 277.491 59.8527 277.22 61.7371C276.836 64.4109 276.967 67.1303 278.009 69.7155C278.221 70.2499 278.436 70.8213 278.471 71.388C278.54 72.6902 278.578 74.0029 278.495 75.3021C278.208 79.6832 279.402 83.5703 282.234 86.9371C282.97 87.8069 283.034 88.7222 282.761 89.8259C282.388 91.3397 282.138 92.8995 282.02 94.4542C281.888 96.124 282.578 97.4341 284.242 98.073L284.473 98.315C284.473 99.1633 284.481 100.062 284.468 100.959C284.455 102.15 284.849 103.179 285.751 103.96C286.459 104.578 287.187 105.203 287.99 105.686C288.809 106.183 289.055 106.819 288.937 107.721C288.825 108.567 288.782 109.42 288.726 110.274C288.68 110.99 288.86 111.622 289.552 111.984C290.194 112.319 290.664 111.93 291.144 111.584L291.404 111.568L291.576 111.756C292.363 112.548 292.87 112.682 293.566 112.285C294.258 111.887 294.403 111.308 294.15 110.298C293.999 109.697 293.835 109.058 293.881 108.453Z" fill="#11B0C8"/>
<path d="M78.9767 113.646C78.7136 111.979 78.0321 110.475 76.8399 109.224C75.4065 107.708 74.5311 105.955 74.397 103.823C74.2414 101.374 72.8376 99.7609 70.6148 98.9019C69.8844 98.6177 69.3663 98.2337 69.0176 97.5678C68.6014 96.7728 68.1263 96.0002 67.7802 95.176C67.34 94.1317 66.5721 93.4287 65.5385 93.2C64.333 92.9287 63.8016 92.1961 63.5359 91.1195C63.4366 90.7249 63.3024 90.3383 63.2431 89.9381C62.8381 87.3584 61.4283 85.4684 59.2163 84.1636C58.5103 83.7448 58.1586 83.1622 57.8259 82.4399C57.1492 80.9769 56.5318 79.4171 55.533 78.193C54.1099 76.4505 52.3197 75.1082 49.7908 76.107L49.4713 76.0184C49.1656 75.3769 48.8887 74.6628 48.5022 74.0127C47.5572 72.437 46.9398 72.2977 45.3559 73.2105L45.1388 73.2238C45.0017 72.9392 44.8542 72.6249 44.6986 72.311C44.1564 71.2267 43.6701 70.1067 43.0532 69.0654C42.4999 68.1307 41.8317 67.2829 40.5243 67.3444C40.1915 67.3603 39.845 67.049 39.2573 66.773C39.9151 66.316 40.2556 66.0129 40.6477 65.8198C41.8691 65.2102 42.7926 64.3241 43.2544 63.0355C43.4638 62.4555 43.8533 62.1335 44.3765 61.9723C45.018 61.7762 45.6784 61.6021 46.3444 61.5428C48.1376 61.3816 49.3269 60.3132 50.1992 58.9064C51.0986 57.4566 51.7616 55.8676 52.0411 54.1547C52.1834 53.2686 52.339 52.4633 53.2518 51.9242C53.6838 51.6693 53.9526 50.9951 54.1108 50.4585C54.3042 49.7767 54.3877 49.038 54.3795 48.3295C54.3662 47.0973 54.6749 46.0667 55.5605 45.1484C57.1823 43.4815 57.641 41.4195 57.2627 39.1563C56.9565 37.3282 56.7635 35.5375 57.4428 33.7094C58.2507 31.5455 57.7352 29.6207 55.8856 28.1632C55.3193 27.7174 55.1095 27.2264 55.2063 26.5419C55.2652 26.1416 55.3056 25.7362 55.3241 25.3312C55.3886 23.9434 55.469 22.5555 55.4771 21.1651C55.4771 20.7838 55.3425 20.3327 55.1147 20.0292C53.5067 17.895 52.2152 17.2428 49.9468 18.0347C49.4795 18.1985 49.0096 18.3787 48.5267 18.4535C47.7455 18.582 47.4691 18.3301 47.3857 17.5433C47.3268 16.9633 47.3186 16.373 47.2004 15.8038C46.9639 14.6094 46.2743 14.0294 45.0472 13.9649C44.6014 13.9404 44.1427 13.9623 43.705 14.0483C42.3494 14.314 41.1842 14.0888 40.0836 13.1541C39.3106 12.4911 38.3548 12.0293 37.4395 11.5517C35.8474 10.7193 34.2072 9.97854 32.6259 9.12726C31.6491 8.59585 30.637 8.31639 29.5385 8.27641C29.0015 8.25491 28.4486 8.33015 27.9224 8.236C26.1777 7.92214 24.7679 8.55845 23.4312 9.60277C21.9415 10.7653 20.4247 11.8978 18.8674 12.9692C16.8218 14.3785 14.6072 15.0845 12.1131 14.2874L11.5868 14.1799C10.5722 13.8605 9.65642 14.1236 8.72517 14.5582C7.22469 15.2616 5.97614 16.2655 4.91033 17.5085C4.28477 18.2415 3.64846 18.5206 2.68196 18.0777C1.82294 17.6882 1.32636 17.8494 0.918347 18.5236C-0.0584735 20.1371 -0.689623 22.8027 1.33711 24.7246C1.66472 25.0333 1.99233 25.3424 2.33886 25.6292C3.74304 26.7917 3.93308 28.2518 3.415 29.9028C3.18971 30.6302 2.93992 31.3607 2.80578 32.1066C2.26062 35.1802 2.50009 38.0368 5.12014 40.2303C5.66745 40.6869 6.13479 41.2587 6.57247 41.8275C7.35625 42.8452 7.94698 43.9269 7.59013 45.3096C7.32142 46.3509 7.2062 47.4301 6.94308 48.4692C6.71994 49.3472 6.71994 50.1387 7.23844 50.9229C7.42375 51.2019 7.55531 51.6017 7.52306 51.9242C7.43751 52.7669 7.61722 53.5266 7.97966 54.273C8.36918 55.0701 8.401 55.8624 8.14905 56.7481C7.73545 58.1923 7.8941 59.599 8.91134 60.8149C9.346 61.333 9.73811 61.8807 10.1728 62.3988C10.8198 63.1667 11.1393 63.9801 10.8357 65.0111C10.4922 66.1762 10.6719 67.2876 11.1982 68.4068C12.3152 70.7878 13.04 73.3115 13.0508 75.9505C13.0534 77.4462 13.1957 79.0108 12.2993 80.399C11.5421 81.5672 11.9742 82.7452 12.7472 83.636C13.8212 84.8764 14.3234 86.3339 14.86 87.8163C15.1123 88.5171 15.0534 89.1135 14.6588 89.7334C13.4747 91.5989 13.4102 93.6016 13.8909 95.7066C14.2292 97.1856 14.8948 98.5012 15.7001 99.7467C16.2745 100.635 16.7066 101.553 16.8678 102.589C17.0023 103.47 17.351 104.208 18.0492 104.793C18.2694 104.979 18.4839 105.29 18.508 105.567C18.6529 107.032 19.002 108.477 18.5807 109.981C18.1511 111.508 18.5054 112.319 19.8988 113.148C20.8331 113.703 21.1766 114.493 21.2304 115.481C21.2708 116.243 21.2196 117.014 21.2575 117.776C21.3327 119.124 21.7433 120.34 22.8173 121.242C23.3031 121.65 23.8268 122.069 24.5138 121.779C25.2142 121.489 25.4992 120.861 25.5126 120.147C25.531 119.296 25.4911 118.437 25.4347 117.586C25.338 116.102 25.3917 114.692 26.9167 113.854L27.1154 113.674C28.7156 112.088 28.882 110.423 27.7706 108.453C26.9546 107.003 26.5814 105.464 27.3114 103.814C27.5986 103.164 27.8381 102.447 27.8888 101.744C27.9344 101.057 27.8725 100.276 27.575 99.6745C26.9976 98.5149 26.2383 97.4409 25.5212 96.351C24.3964 94.6438 23.7601 92.9021 24.9708 90.9579L25.1372 90.5903C26.286 88.4939 26.3879 86.3997 25.0891 84.3248C24.6918 83.6906 24.6406 83.0818 25.0865 82.443C25.9158 81.2671 25.752 80.0912 25.105 78.8882C24.721 78.1797 24.3883 77.4333 24.1196 76.6762C23.6041 75.2264 24.0714 74.3455 25.7976 73.7337C26.4821 74.4796 27.2203 75.3253 27.9989 76.1336C29.1559 77.3306 30.5949 77.7923 32.1843 77.3392C33.3817 76.9982 34.0903 77.4948 34.6728 78.3753C35.2928 79.3152 35.819 80.3135 36.4553 81.237C36.9627 81.9696 37.5156 82.6919 38.1601 83.3041C38.8338 83.9512 39.36 83.8652 40.0337 83.2151C41.2848 81.9971 41.5531 81.9752 42.7479 83.2181C43.4032 83.9082 44.1091 84.3992 45.0971 84.2818C45.8353 84.1902 46.3052 84.4989 46.5976 85.146C47.2232 86.5364 47.8943 87.9083 48.4687 89.3177C49.1884 91.0895 50.3776 91.6479 52.0931 90.9231C52.3399 90.8186 52.5819 90.6978 52.8339 90.5955C53.8029 90.2038 53.9023 90.1844 54.4582 91.1238C55.1426 92.2808 55.7682 93.4786 56.3426 94.6971C57.113 96.3218 58.3801 97.3872 60.0904 97.6877C61.1317 97.873 61.6794 98.3619 62.0982 99.2071C62.3157 99.6504 62.5788 100.075 62.7964 100.518C63.8059 102.566 64.9495 104.477 67.309 105.237L67.76 105.527C68.9226 106.332 70.0207 107.167 70.0985 108.778C70.1789 110.379 70.8337 111.822 71.43 113.283C71.838 114.279 72.4313 115.082 73.3927 115.597C74.1739 116.019 74.7053 116.647 75.0165 117.495C75.3145 118.295 75.6743 119.076 76.0527 119.839C76.5815 120.897 77.5424 121.554 78.2166 121.377C78.9174 121.192 79.2876 120.421 79.2527 119.098C79.2394 118.518 78.9415 117.874 79.1104 117.371C79.5434 116.086 79.1702 114.87 78.9767 113.646ZM38.0186 56.3921C37.7396 56.5693 37.3849 56.6419 37.0547 56.7146C36.3216 56.8861 35.5568 56.9588 34.8452 57.1952C34.04 57.464 33.2424 57.8019 32.5016 58.2207C31.9324 58.5457 31.3821 58.9778 30.9715 59.4795C30.3807 60.207 29.6855 60.7117 28.7349 61.0931C28.4125 60.8222 28.1042 60.5023 27.7418 60.2581C26.1523 59.1867 25.1914 59.1093 23.9218 60.0621C23.5753 60.3226 23.1698 60.4972 22.4854 60.8837C22.6143 60.0354 22.6492 59.4825 22.7915 58.9589C22.923 58.4864 23.1913 58.0543 23.3659 57.5925C23.9029 56.175 23.7391 55.5817 22.4449 54.7601C21.9135 54.4247 21.7119 54.0378 21.7257 53.4423C21.7472 52.5429 21.7338 51.6409 21.7282 50.7389C21.7231 49.4099 21.1938 48.4168 19.9539 47.8179C19.1215 47.415 19.0493 47.1252 19.2535 46.2017C19.3821 45.6381 19.4895 45.0581 19.554 44.4811C19.7823 42.5374 18.8107 41.1843 17.3824 40.0325C17.1382 39.8365 16.8884 39.4633 16.8966 39.1761C16.9288 37.799 16.4697 36.4219 17.0097 35.0392C17.3506 34.1613 16.7947 33.4579 16.1988 32.8913C15.2645 32.0107 15.1545 30.9423 15.3854 29.788C15.5758 28.8163 16.0217 28.5235 16.9963 28.6576C17.262 28.6981 17.5415 28.7032 17.796 28.7785C20.0085 29.447 21.7506 28.6069 23.2915 27.0927C23.5464 26.8403 23.8147 26.5957 24.0645 26.3381C24.9102 25.4628 25.9545 25.1541 27.136 25.2779C27.8983 25.3557 28.6498 25.538 29.4099 25.5784C30.3924 25.6322 31.3752 25.5948 32.4702 25.5948C34.6178 29.4952 35.5387 29.9625 38.8462 28.7595C39.6408 29.5622 40.5346 30.2901 39.952 31.7072C39.6863 32.3598 39.928 33.0551 40.3923 33.5998C41.0312 34.3543 41.6701 35.1115 42.3709 35.8067C42.846 36.2817 43.4259 36.6524 43.9711 37.0793C43.622 37.6563 43.4556 37.9624 43.2596 38.2444C42.4625 39.3962 42.3038 40.2015 43.171 41.1947C44.3684 42.561 43.7402 44 43.6701 45.4364L43.5012 45.7907C42.6478 46.752 41.7776 47.7048 40.9267 48.6687C40.084 49.6219 39.8317 50.8137 39.6382 52.0136C39.5255 52.7222 39.4856 53.4449 39.3725 54.156C39.2237 55.0765 38.8346 55.8818 38.0186 56.3921Z" fill="#11B0C8"/>
<path d="M429.051 55.4927C428.42 55.187 427.816 55.3315 427.225 55.5869C425.703 56.2447 424.159 56.8646 422.68 57.6084C421.725 58.0861 420.716 58.6179 419.996 59.3751C417.744 61.7535 414.501 62.6177 412.085 64.7201L411.843 64.8379C409.679 65.7102 407.555 66.7115 405.336 67.4123C403.4 68.022 401.411 68.3891 400.106 70.2418C400.074 69.7589 400.117 69.3668 400.251 69.007C400.649 67.9467 400.466 66.9695 399.889 66.0456C399.462 65.3585 398.976 64.7063 398.552 64.0162C398.348 63.6861 398.095 63.2995 398.101 62.9448C398.123 62.0617 397.731 61.4203 397.237 60.7436C396.92 60.3007 396.659 59.7022 396.643 59.1678C396.56 56.384 396.573 53.5997 396.519 50.8188C396.492 49.4177 395.889 48.3299 394.66 47.584C394.302 47.3664 393.902 46.9907 393.797 46.6149C393.051 43.8951 391.413 41.4548 391.29 38.5424C391.274 38.2337 391.183 37.9168 391.073 37.627C390.186 35.3183 389.336 32.9962 388.372 30.7227C387.975 29.7828 387.357 28.9212 386.753 28.0863C386.522 27.7746 385.953 27.4018 385.69 27.4955C385.304 27.6271 384.874 28.1211 384.796 28.524C384.657 29.257 384.74 30.0352 384.769 30.7979C384.844 33.1256 384.938 35.4584 385.029 37.8261C383.563 38.1537 383.209 39.131 383.292 40.3013C383.405 41.8667 383.587 43.4235 383.765 44.9803C383.867 45.8715 384.095 46.7525 384.122 47.6433C384.17 49.3962 384.141 51.1546 384.111 52.9075C384.079 54.8727 384.398 56.7735 385.244 58.5453C385.948 60.032 386.385 61.5677 386.458 63.2054C386.498 64.0567 386.544 64.9131 386.517 65.7644C386.492 66.6071 386.799 67.27 387.446 67.7619C387.897 68.1028 388.412 68.3573 389.161 68.8088C388.576 70.9318 388.036 73.1094 387.37 75.2514C386.734 77.3078 385.872 79.2808 386.461 81.547C386.728 82.5698 386.318 82.989 385.298 83.3403C384.662 83.5608 383.996 83.7031 383.368 83.9469C381.738 84.5828 380.079 85.1658 378.511 85.9392C377.161 86.6078 377.083 87.4638 378.039 88.6423L378.245 88.9402L378.09 89.1926C377.786 89.3805 377.475 89.5602 377.155 89.724C375.118 90.7791 373.473 92.2985 372.02 94.038C371.035 95.219 371.018 96.014 371.819 97.2191C372.75 98.6177 372.728 99.085 371.497 100.199C369.999 101.557 368.462 102.876 366.922 104.183C366.224 104.776 365.633 105.412 365.311 106.299C365.204 106.596 364.943 106.953 364.667 107.053C363.035 107.646 362.014 108.857 361.22 110.315C360.513 111.614 359.569 112.672 358.248 113.356C357.534 113.724 356.755 113.974 356.054 114.366C352.921 116.119 350.35 118.588 347.788 121.048C347.2 121.612 346.854 122.463 346.513 123.233C346.156 124.03 345.985 124.884 346.811 125.568C347.506 126.143 348.336 126.146 349.321 125.566L349.871 125.179C351.697 123.647 353.493 122.082 355.348 120.586C356.036 120.03 356.808 119.488 357.632 119.214C359.243 118.677 360.91 118.293 362.574 117.92C364.373 117.512 365.938 116.777 367.243 115.407C368.977 113.582 370.813 111.853 372.614 110.089C372.902 109.81 373.211 109.528 373.552 109.324C374.716 108.621 375.567 107.622 376.056 106.395C376.921 104.215 378.359 102.444 379.849 100.696C380.518 99.9092 381.258 99.1766 381.881 98.352C382.276 97.8313 382.638 97.2226 382.794 96.5936C383.288 94.6498 384.399 93.2276 386.053 92.1428C388.346 90.6342 390.595 89.0744 392.877 87.5472C393.876 86.8812 394.606 86.0089 395.148 84.9349C395.489 84.2612 395.924 83.6171 396.408 83.0346C397.796 81.3565 399.575 80.3204 401.678 79.7026C405.049 78.712 407.446 76.4948 408.963 73.3511C409.361 72.5299 409.964 71.974 410.695 71.5286C411.188 71.2224 411.728 70.9752 412.273 70.7714C413.857 70.1751 415.205 69.2331 416.472 68.1243C417.213 67.4747 417.997 66.8332 418.859 66.374C421.468 64.9944 423.771 63.2062 425.906 61.1928C427.149 60.0225 428.335 58.7852 429.492 57.5311C430.235 56.7331 430.023 55.9626 429.051 55.4927Z" fill="#11B0C8"/>
<path d="M209.785 79.7881C209.036 77.9948 208.37 76.1985 208.491 74.1933C208.574 72.8106 208.456 71.4176 208.507 70.0324C208.547 68.9128 208.59 67.7743 208.84 66.69C209.282 64.7678 209.865 62.8726 210.421 60.977C210.682 60.0939 210.625 59.2564 210.05 58.5478C209.234 57.5358 209.146 56.4029 209.422 55.2326C209.766 53.7936 210.228 52.3791 210.609 50.9478C210.746 50.4353 210.902 49.8958 210.875 49.3747C210.835 48.4864 210.483 47.6644 209.602 47.3024C208.663 46.9129 207.822 47.2753 207.178 47.9976C206.735 48.4946 206.273 49.0393 206.034 49.649C205.61 50.7281 205.307 51.8636 205.027 52.9939C204.483 55.2085 203.988 57.4395 203.471 59.6597L203.291 60.167C202.233 61.799 201.866 63.6353 201.618 65.5227C201.492 66.5021 200.974 67.1471 200.053 67.6918C198.722 68.4842 197.482 69.4907 196.373 70.5775C195.32 71.6064 194.478 72.8489 193.549 74.0007C193.576 73.2143 193.533 72.4164 193.67 71.6545C194.147 69.0074 194.701 66.371 195.213 63.7243C195.468 62.4035 195.745 61.0772 195.911 59.7431C195.994 59.0479 195.984 58.2856 195.785 57.6226C195.538 56.8036 195.039 56.0439 194.032 55.9824C193.074 55.9179 192.419 56.4412 191.957 57.2335C191.801 57.5048 191.664 57.792 191.546 58.0818C190.365 61.011 189.191 63.9423 187.935 67.0701C187.516 65.1586 186.735 63.7703 184.59 64.2622C183.839 63.0136 183.653 61.7169 183.398 60.4473C183.195 59.4404 182.714 58.6029 182.013 57.8703C181.471 57.3036 180.784 57.3036 180.134 57.5427C179.471 57.7899 179.025 58.265 179.025 59.0702C179.025 59.7388 178.921 60.4069 178.872 61.078C178.791 62.192 178.657 63.309 178.652 64.423C178.649 65.5881 178.719 66.7614 178.853 67.9209C179.054 69.6553 177.994 70.7938 177.087 72.1739C176.639 71.2607 176.19 70.5255 175.905 69.728C175.712 69.194 175.798 68.5689 175.675 68.0022C175.479 67.1268 175.183 66.2756 174.985 65.4006C174.759 64.3993 174.577 63.3872 174.405 62.3803C174.322 61.8919 174.346 61.3902 174.257 60.9065C173.828 58.5711 173.159 56.2786 173.151 53.8706C173.148 53.1186 173.041 52.343 172.848 51.6155C172.627 50.7969 172.018 50.3644 171.395 50.5067C170.598 50.692 169.798 50.9603 169.368 51.7252C168.934 52.5038 168.528 53.3116 168.222 54.1491C167.9 55.0327 167.709 55.9639 167.468 56.8767C167.302 57.5156 166.944 57.9103 166.236 57.8754C164.939 57.8165 164.287 58.6295 163.825 59.6739C163.5 60.4151 163.27 61.1989 162.893 61.913C161.903 63.8107 161.653 65.7412 162.472 67.7627C162.751 68.4523 162.816 69.1557 162.555 69.8647C161.661 72.3046 161.232 74.9195 159.782 77.156C159.495 77.5989 159.243 78.1354 159.2 78.6513C159.125 79.5237 158.921 80.6059 159.321 81.2606C160.043 82.4232 160.18 83.5776 160.145 84.8446C160.134 85.1103 160.172 85.3893 160.234 85.6473C160.443 86.4741 161.093 87.0644 161.804 87.1022C162.588 87.1396 163.071 86.7372 163.364 85.7221C163.581 84.9813 163.841 84.2969 164.419 83.7332C165.09 83.0724 165.233 82.2026 164.902 81.3518C164.636 80.654 164.838 80.1359 165.222 79.6041C165.512 79.2043 165.858 78.8315 166.086 78.402C166.306 77.9806 166.54 77.4995 166.537 77.046C166.524 75.5321 167.337 74.453 168.212 73.2797C168.518 73.5132 168.701 73.7363 168.934 73.8193C170.005 74.1869 170.386 75.0756 170.685 76.0339C171.106 77.4084 171.431 78.8182 171.957 80.1493C172.677 81.9829 173.541 83.7577 174.357 85.5562L174.69 85.9771C175.136 86.4496 175.659 86.5781 176.285 86.3662C177.109 86.0949 177.603 85.5338 177.608 84.6855C177.614 82.8927 177.552 81.0964 177.504 79.301C177.476 78.2966 177.41 77.2897 177.356 76.1302C178.304 76.6354 178.677 77.2098 178.596 78.0739C178.559 78.4742 178.629 78.89 178.567 79.2847C178.323 80.8359 179.332 81.6871 180.347 82.5277C180.736 82.8471 181.219 82.8527 181.59 82.5088C182.551 81.6123 183.493 80.694 183.308 79.1828C183.257 78.7911 183.246 78.3642 183.343 77.9854C183.716 76.533 183.579 75.137 183.013 73.7677C182.825 73.3167 182.742 72.8846 183.024 72.3343C183.678 72.9306 184.36 73.3515 184.761 73.9612C185.703 75.3787 186.535 76.8714 187.356 78.3637C188.006 79.5422 188.556 80.7718 189.187 81.961C189.517 82.581 190.006 83.072 190.784 82.9997C191.574 82.9245 192.103 82.5006 192.323 81.7005C192.459 81.1987 192.661 80.7155 192.86 80.1493L193.034 80.3423L193.088 80.7396C193.198 82.5758 194.194 83.7061 195.877 84.3265C196.465 84.5411 197.039 84.799 197.582 85.1026C199.783 86.3344 202.277 85.8752 203.848 83.9237C204.095 83.618 204.328 83.3011 204.677 82.8476C204.825 83.5294 204.943 84.0475 205.042 84.5656C205.3 85.8464 205.926 86.9225 206.86 87.8112C207.741 88.6487 208.94 88.7106 209.95 88.0262C210.838 87.4221 211.308 86.6435 211.214 85.5243C211.044 83.5277 210.55 81.627 209.785 79.7881ZM166.885 67.7666C167.667 65.6861 168.402 63.7372 169.135 61.7853L169.484 61.8739C169.484 62.8993 169.336 63.9517 169.524 64.9423C169.701 65.8547 170.241 66.7008 170.7 67.7662L166.885 67.7666ZM202.004 77.9411C201.551 78.3169 201.21 78.8298 200.78 79.2434C200.045 79.9571 199.124 79.8307 198.979 78.8887C198.842 78.0163 199.078 77.0739 199.223 76.1745C199.366 75.2935 199.731 74.6628 200.703 74.2737C201.57 73.9194 202.254 73.1168 203.256 72.3325C203.481 74.5024 203.835 76.4187 202.004 77.9411Z" fill="#11B0C8"/>
<path d="M146.241 38.2526C145.277 38.4138 144.268 38.4942 143.374 38.8541C142.3 39.2836 141.234 39.8554 140.322 40.5639C137.591 42.6848 134.923 44.8913 132.252 47.09C131.589 47.6377 131.011 48.3114 130.053 48.2203C129.226 48.1425 128.558 48.4675 127.946 48.9585C126.963 49.7423 126.013 50.5746 125.019 51.3477C124.563 51.7024 124.069 52.0351 123.54 52.266C122.652 52.6581 121.723 52.9612 120.799 53.3047C120.179 52.2123 120.128 51.0712 120.735 49.8876C120.982 49.4099 121.192 48.8918 121.278 48.3682C121.532 46.8273 121.879 45.2915 120.977 43.7829C120.706 43.3319 120.797 42.6582 120.748 42.0812C120.684 41.3241 120.853 40.4595 120.55 39.8262C120.039 38.7711 120.227 37.8502 120.563 36.8652C120.692 36.4812 120.832 36.0999 120.936 35.7108C121.401 33.9953 121.551 32.2558 121.196 30.5029C120.807 28.5592 119.135 27.9525 117.545 29.1581C117.258 29.3731 116.973 29.5876 116.713 29.7837C115.118 29.3808 114.812 29.4238 114.112 30.4651C113.797 30.9325 113.567 31.5176 113.499 32.0735C113.411 32.8706 113.532 33.6897 113.515 34.5001C113.47 37.0131 113.687 39.5768 113.266 42.0249C112.718 45.1978 111.999 48.3712 110.818 51.4074C110.463 52.3172 110.356 53.3241 110.136 54.285C109.929 55.2003 109.778 56.132 109.505 57.0263C109.078 58.4382 108.53 59.8153 108.106 61.2328C107.958 61.7324 107.95 62.3094 108.015 62.836C108.122 63.7054 108.64 64.3284 109.477 64.6074C110.232 64.8598 110.782 64.4681 111.241 63.9178C111.784 63.26 112.31 62.5888 112.865 61.9366C113.104 61.6572 113.389 61.4181 113.654 61.1606L113.974 61.3403C113.786 62.1026 113.585 62.8679 113.41 63.6387C113.279 64.2024 113.101 64.7742 113.093 65.3434C113.066 67.4372 112.771 69.4322 111.652 71.2762C111.185 72.0496 110.919 73.1017 111.714 73.778C112.581 74.5192 112.479 75.3271 112.32 76.2132C111.824 79.0022 111.319 81.786 110.793 84.5673C110.701 85.0505 110.554 85.5338 110.344 85.9766C109.619 87.499 109.373 89.1337 109.007 90.7575C108.618 92.5027 109.429 93.6089 110.462 94.707C111.088 95.3755 111.716 95.4452 112.347 94.7925C112.959 94.1618 113.592 93.421 113.85 92.6127C114.382 90.9377 114.954 89.2949 115.705 87.7084C115.893 87.3056 115.997 86.855 116.092 86.4199C116.459 84.7049 116.806 82.9864 117.163 81.2705C117.498 79.6466 117.837 78.0249 118.22 76.1917C119.654 76.8628 120.346 75.9234 121.093 75.0321C121.259 74.8283 121.576 74.7505 121.898 74.5755C122.199 75.3752 122.352 76.1082 122.733 76.6938C123.114 77.276 123.732 77.708 124.233 78.2158L124.542 78.6556C125.675 80.7524 126.929 82.82 127.095 85.2737C127.199 86.7982 127.96 87.8886 129.084 88.7906C130.416 89.8564 131.17 91.295 131.503 92.8896C131.965 95.075 133.066 96.9031 134.376 98.616C134.958 99.3778 135.235 100.148 135.337 101.067C135.42 101.818 135.487 102.629 135.82 103.284C136.378 104.382 136.805 105.469 136.896 106.715C136.961 107.625 137.68 108.167 138.534 108.18C139.484 108.191 139.949 107.796 140.18 106.763C140.22 106.591 140.225 106.409 140.255 106.14C141.605 106.162 142.274 105.805 142.446 104.768C142.682 103.351 142.835 101.912 142.279 100.508C142.013 99.8396 141.796 99.1525 141.571 98.4681C140.25 94.4516 138.98 90.4334 138.76 86.1486C138.703 85.1365 138.156 84.0733 137.595 83.1846C136.642 81.6815 135.922 80.1596 135.638 78.3689C135.251 75.947 134.261 75.0962 131.847 74.6937C130.94 74.5407 130.118 74.2612 129.547 73.4504C128.25 71.6119 126.916 69.7998 125.606 67.9768C125.42 67.7189 125.278 67.4373 125.117 67.166C124.68 66.4411 124.272 65.6973 123.804 64.9939C122.859 63.5631 123.383 61.8799 125.005 61.2569C126.014 60.8729 127.029 60.5135 128.035 60.127C130.902 59.0289 132.891 57.166 133.635 54.0601C134.07 52.2591 135.002 50.7311 136.881 50.0226C137.259 49.8803 137.595 49.6335 137.963 49.4671C139.839 48.5999 141.189 47.2039 142.067 45.3487C142.408 44.632 142.964 44.1677 143.56 43.6629C144.827 42.592 145.995 41.4027 147.171 40.2269C147.525 39.8752 147.753 39.4186 147.469 38.882C147.205 38.3811 146.778 38.161 146.241 38.2526Z" fill="#11B0C8"/>
<path d="M347.346 96.6791C347.792 96.0617 347.937 95.3368 347.719 94.6231C347.368 93.4683 346.974 92.32 346.504 91.2055C345.733 89.3989 345.293 87.6057 345.61 85.5789C346.106 82.3897 345.4 79.3586 343.456 76.7652C342.624 75.6568 342.32 74.6069 342.503 73.2887C342.619 72.4512 342.611 71.5896 342.117 70.8032C340.989 69.0126 339.908 67.1978 337.958 66.1161C337.276 65.7403 337.301 64.932 337.972 64.484C338.383 64.2127 338.872 64.0704 339.304 63.8288C340.084 63.3967 340.906 63.0046 341.609 62.4624C342.485 61.7857 343.414 61.3106 344.503 61.1038C344.924 61.023 345.33 60.8003 345.717 60.5913C347.032 59.8828 347.894 58.7469 348.646 57.4932C349.083 56.7632 349.242 55.9979 349.15 55.1681C349.091 54.6315 349.083 54.0782 348.935 53.5657C348.726 52.8464 348.576 52.0059 348.101 51.4904C347.204 50.5106 346.627 49.3588 345.918 48.277C345.489 47.6141 345.33 47.1012 345.795 46.3359C346.48 45.2137 346.211 44.2124 345.255 43.3104C344.198 42.3224 342.987 41.8766 341.543 42.2042C340.337 42.475 339.221 42.1908 338.155 41.6487C336.482 40.7948 335.408 40.8782 334.179 42.2635C332.931 43.6728 331.83 45.2167 330.67 46.7039C330.487 46.9369 330.321 47.1841 330.109 47.4795C329.408 46.835 329.464 46.0594 329.373 45.3186C329.169 43.6703 329.003 42.0137 328.673 40.3924C328.477 39.4289 327.827 39.0097 327.072 39.0041C326.249 38.9938 325.486 39.5841 325.236 40.5132C325.135 40.8834 325.177 41.297 325.164 41.6917C325.121 42.8542 325.147 44.0219 325.027 45.1789C324.799 47.4099 324.31 49.6275 324.254 51.861C324.195 54.3121 323.835 56.6823 323.314 59.0638C323.14 59.8716 323.231 60.7496 323.285 61.5922C323.352 62.677 323.999 63.3829 324.93 63.8954C326.09 64.5292 326.367 65.3159 325.87 66.5744C325.593 67.2859 325.212 67.9545 324.936 68.6686C324.461 69.8931 324.383 71.1541 325.04 72.3248C325.752 73.5948 325.773 74.8133 325.373 76.2041C325.059 77.2992 324.93 78.5314 325.078 79.6557C325.268 81.1059 325.282 82.5178 325.107 83.9486C325.034 84.5282 324.965 85.1271 325.04 85.6959C325.102 86.1495 325.29 86.6676 325.596 86.9977C326.742 88.2325 328.579 87.9397 329.231 86.3374C329.607 85.4061 329.759 84.3321 329.776 83.3226C329.803 81.7572 330.119 80.3264 330.761 78.893C331.228 77.8512 331.397 76.6594 331.615 75.521C331.743 74.8339 331.706 74.1198 331.735 73.6125C332.054 73.8489 332.452 74.1228 332.836 74.4177C334.656 75.8107 335.969 77.6173 337.089 79.5908C337.508 80.3294 337.996 81.0676 338.597 81.6553C339.886 82.912 340.378 84.3906 340.291 86.1572C340.251 87.0003 340.256 87.9161 340.546 88.6814C341.105 90.1655 341.481 91.6742 341.781 93.2258C342.06 94.6459 342.619 95.9886 343.714 97.0136C344.866 98.0914 346.436 97.9435 347.346 96.6791ZM336.895 57.6132C336.546 58.2628 335.98 58.792 335.459 59.4309C335.142 59.2082 334.858 59.1089 334.742 58.9103C334.221 58.0139 333.602 57.2271 332.788 56.5585C332.49 56.3143 332.484 55.721 332.318 55.1999C333.717 54.8753 334.49 54.1341 334.962 52.9586C335.765 50.9749 336.213 50.7707 338.903 51.0256C336.927 52.3597 336.941 53.9518 337.365 55.7369C337.5 56.3036 337.193 57.0525 336.895 57.6132Z" fill="#11B0C8"/>
<path d="M347.744 64.3438C346.713 64.6147 346.281 65.3318 346.485 66.3572C346.721 67.549 347.443 68.2232 348.648 68.1157C349.701 68.022 350.557 68.3977 351.486 68.7494C352.885 69.2808 353.953 70.5908 355.701 70.3793C355.591 70.7254 355.564 70.9589 355.454 71.1412C354.75 72.3411 354.49 73.6271 354.447 75.0093C354.426 75.6379 354.117 76.3064 353.787 76.8675C353.344 77.6246 353.202 78.3813 353.43 79.1922C353.61 79.8388 353.817 80.4966 354.144 81.0766C354.533 81.7662 354.555 82.3303 354.219 83.0763C353.502 84.6872 353.309 86.3627 354.198 88.0188C354.34 88.2871 354.453 88.6199 354.44 88.9152C354.34 90.8427 354.496 92.8479 354.01 94.6738C353.331 97.2135 353.272 99.7347 353.331 102.293C353.358 103.464 353.599 104.634 354.33 105.6C355.03 106.523 355.903 106.446 356.485 105.449C356.62 105.221 356.692 104.953 356.772 104.695C357.167 103.412 357.556 102.126 357.935 100.832C358.136 100.145 358.394 99.4608 358.48 98.757C358.84 95.7289 359.184 92.6953 359.46 89.659C359.613 87.9733 359.881 86.3627 360.893 84.9504C361.121 84.6313 361.326 84.2285 361.355 83.8497C361.452 82.5556 361.632 81.243 361.143 79.9755C360.918 79.396 360.944 78.8426 361.253 78.2953C362.176 76.65 362.265 74.8885 362.04 73.063C361.935 72.2306 361.948 71.3798 361.908 70.5397L362.236 70.3006C362.703 70.5182 363.259 70.636 363.621 70.9692C365.164 72.3893 367.044 72.5346 368.926 72.2444C369.967 72.081 370.749 72.2418 371.546 72.8433C372.577 73.6241 373.76 74.0273 375.057 74.0781C376.88 74.1421 377.575 73.517 377.658 71.7534C378.026 71.4877 378.416 71.2542 378.754 70.9614C379.68 70.1532 379.766 69.1548 378.899 68.2657C378.475 67.8281 377.919 67.4523 377.35 67.2377C376.601 66.9557 375.79 66.8022 374.993 66.6977C374.421 66.6229 373.992 66.4295 373.613 65.9866C372.875 65.1143 371.89 64.717 370.755 64.6981C369.904 64.6848 369.05 64.6951 368.18 64.6951C367.033 63.1168 366.682 63.0041 364.548 63.2888C363.633 63.4066 362.693 63.6379 361.624 63.1705C361.842 62.4779 361.984 61.7719 362.279 61.1434C363.165 59.2538 363.763 57.2748 364.134 55.2403C364.537 53.0257 364.967 50.8326 366.013 48.808L366.094 48.5505C366.327 46.9962 366.373 45.5009 365.039 44.3276C363.976 43.3959 363.952 43.1517 364.658 41.9329C365.38 40.6873 366.166 39.4766 366.821 38.1984C367.203 37.455 367.533 36.6253 367.619 35.8067C367.785 34.1613 366.657 33.2189 365.004 33.482C363.524 33.718 362.639 34.6686 362.05 35.9761C361.63 36.9129 361.173 37.8338 360.724 38.7651C359.575 41.1491 358.365 43.5034 358.026 46.1961C357.906 47.16 357.535 48.0969 357.211 49.0255C356.709 50.4779 356.298 51.9491 356.325 53.4982C356.341 54.5558 356.11 55.5387 355.64 56.4889C355.006 57.7774 354.837 59.1201 355.122 60.5561C355.441 62.1671 354.942 62.7389 353.337 62.7466C352.461 62.7492 351.622 62.8296 350.924 63.4177C350.309 63.9358 349.595 64.1289 348.811 64.1749C348.453 64.1959 348.09 64.2527 347.744 64.3438Z" fill="#11B0C8"/>
<path d="M103.508 75.6749C101.9 76.8318 100.85 76.843 99.2208 75.7045C98.7401 75.3692 98.2866 74.996 97.8007 74.6735C96.9499 74.1047 96.0586 73.9164 95.1858 74.6254C94.657 75.0523 94.12 75.0416 93.556 74.7518C92.6084 74.2604 91.7223 74.4487 90.877 74.9853C90.2304 75.3907 89.6289 75.8739 88.9711 76.2553C88.0639 76.7759 87.2234 76.2957 87.2101 75.254C87.2045 74.9044 87.2746 74.5287 87.4164 74.2096C87.7062 73.5548 88.0502 72.9237 88.4018 72.3007C88.8447 71.5221 89.4058 70.7951 89.7605 69.9786C90.5739 68.0998 90.276 67.1711 88.6357 66.0834C88.4504 65.96 88.2625 65.8417 87.9642 65.6483C88.1976 63.9087 89.3146 62.8859 90.4956 61.8953C92.0795 60.569 93.6793 59.259 95.2043 57.8655C96.0582 57.0843 96.6244 56.1075 96.0285 54.8886C96.8794 54.3516 97.7358 54.1474 98.6567 54.1556C99.422 54.1612 100.187 54.1638 100.952 54.1341C102.885 54.0589 104.571 53.4445 105.758 51.8283C106.26 51.1409 106.493 50.3571 106.069 49.5488C105.683 48.8054 105.017 48.4671 104.174 48.5045C102.695 48.5685 101.213 48.5905 99.7393 48.722C99.0708 48.7835 98.5312 48.7891 98.0561 48.2173C97.5355 47.5917 96.8106 47.3849 95.9916 47.4361C93.9592 47.5676 92.123 48.2495 90.5687 49.5544C90.0885 49.9572 89.613 50.6146 89.5352 51.2079C89.3447 52.7058 88.5231 53.4041 87.1408 53.6534L86.4989 53.8521C83.8092 54.6225 82.9206 55.715 82.5525 58.4533C82.4021 59.5969 82.249 60.8291 81.7232 61.8171C80.9712 63.2131 80.577 64.6224 80.491 66.1711C80.4372 67.1943 80.04 68.0774 79.3422 68.8393C78.8564 69.3681 78.306 69.881 77.984 70.507C77.5597 71.3256 77.1946 72.225 77.0467 73.1322C76.8589 74.2625 77.5971 75.0003 78.7355 75.0863C78.9398 75.1022 79.1436 75.0889 79.4763 75.0889C79.1835 75.5915 78.8912 75.9453 78.7514 76.3563C78.4802 77.1534 78.1633 77.9699 78.0936 78.7936C77.9836 80.0822 78.5954 80.6837 79.9084 80.7856C80.5361 80.8367 81.1673 80.8075 81.798 80.8208C83.1084 80.8531 83.519 81.2851 83.2641 82.5681C83.0332 83.7521 83.2692 84.7719 84.2495 85.4431C85.1541 86.0691 85.3394 86.8851 85.3609 87.8705C85.3742 88.4961 85.4387 89.135 85.6128 89.7339C85.7444 90.1844 86.0183 90.6359 86.3403 90.9846C86.8932 91.5912 87.6662 91.6578 88.2595 91.1079C88.772 90.6277 89.2286 90.0421 89.5644 89.4247C90.0769 88.4797 90.4183 87.438 90.92 86.4878C91.3173 85.7419 91.7816 85.011 92.3263 84.37C92.8014 83.8085 93.3947 83.5509 94.2404 83.8704C94.7559 84.066 95.489 83.9374 96.0393 83.7281C96.6971 83.4787 97.3226 83.0569 97.8485 82.5844C98.7638 81.7551 99.7385 81.5272 100.949 81.7284C103.728 82.1902 106.283 80.3539 106.729 77.5782C106.823 77.0064 106.702 76.2867 106.409 75.7957C105.79 74.7466 104.783 74.757 103.508 75.6749Z" fill="#11B0C8"/>
<path d="M318.563 68.2898C317.578 67.1006 317.336 65.9626 317.999 64.5769C318.42 63.6861 318.855 62.781 319.116 61.836C319.763 59.5165 319.715 57.2292 318.549 55.0361C318.305 54.5769 318.19 54.021 318.136 53.4978C318.013 52.3838 317.631 51.4573 316.805 50.6443C315.344 49.2053 313.771 48.0053 311.808 47.3153C309.108 46.3703 306.601 46.6846 304.512 48.609C303.169 49.8468 302.133 51.4117 300.938 52.8103C300.568 53.2424 300.165 53.6857 299.693 53.9862C297.602 55.3151 295.972 56.982 295.564 59.538C295.322 61.0333 294.799 62.3296 293.786 63.5244C292.487 65.0597 292.382 67.368 293.499 68.7997C294.973 70.6919 295.239 72.7805 294.939 75.0463C294.82 75.935 294.764 76.8314 294.662 77.914C294.777 78.7189 294.812 79.7206 295.083 80.6544C295.397 81.7387 296.262 82.308 297.22 82.0638C298.34 81.7736 299.118 82.2916 299.964 82.8209C300.638 83.2448 301.335 83.6421 302.066 83.9589C302.495 84.1473 302.798 84.3455 303.024 84.7887C303.746 86.2032 304.632 86.6757 306.227 86.3675C307.451 86.1284 308.621 85.6589 309.91 85.9001C310.194 85.9539 310.56 85.8438 310.817 85.6912C312.127 84.9147 313.625 84.3106 314.667 83.2612C316.524 81.3901 318.221 79.3233 319.762 77.1758C320.683 75.8924 321.362 74.3782 320.933 72.6172C320.525 70.9451 319.61 69.5599 318.563 68.2898ZM308.734 72.8588C309.4 74.2359 309.357 74.2578 309.223 75.613C308.393 75.6938 307.521 75.7772 306.745 75.8469C306.098 74.843 305.526 73.9435 304.944 73.0523C304.45 72.3059 303.838 71.7203 302.872 71.7663C302.163 71.7986 301.918 71.3798 301.803 70.8002C301.68 70.185 301.578 69.5625 301.452 68.9476C301.095 67.221 301.5 65.7098 302.821 64.5395C304.112 63.3954 304.63 62.0828 304.338 60.3433C304.107 58.9688 305.079 58.1497 306.246 57.5779C306.045 58.4425 305.825 59.3041 305.656 60.1739C305.306 61.9405 306.042 63.2342 307.468 64.2063C307.803 64.4341 308.171 64.6091 308.504 64.84C309.361 65.4303 309.535 65.9299 309.208 66.9205C309.054 67.3878 308.835 67.8358 308.646 68.295C308.02 69.8286 307.994 71.3342 308.734 72.8588Z" fill="#11B0C8"/>
<path d="M71.4171 60.8351C71.3659 59.1438 71.6561 57.528 72.2546 55.9519C72.6979 54.7868 72.9283 53.5546 72.3647 52.4032C71.7387 51.125 71.5942 49.8476 71.844 48.4839V47.9443C71.7739 46.9107 71.2855 46.406 70.2468 46.3092C69.3207 46.2288 68.4694 46.4378 67.6856 46.9614C67.4118 47.1467 67.0498 47.3213 66.7381 47.3024C65.1034 47.2031 64.4938 47.6567 64.7006 49.2324C64.9207 50.9397 64.7165 52.5399 64.1206 54.1234C64.0264 54.3732 64.0024 54.647 63.946 54.9127C63.7418 55.8818 63.876 56.7086 64.8936 57.1682C65.5407 57.4605 65.6907 58.0349 65.5811 58.6339C65.4762 59.1979 65.2427 59.7427 65.0278 60.2797C64.6627 61.198 64.2117 62.0837 63.8979 63.0149C63.385 64.5481 63.5436 65.9548 64.9233 67.0177C65.4629 67.4338 65.7419 67.9786 65.7122 68.6497C65.6533 69.9924 65.6503 71.3428 65.4654 72.6688C65.342 73.5759 65.1726 74.4595 65.5755 75.3107C65.9431 76.0838 66.0024 76.8706 65.8145 77.6758C65.5862 78.6638 65.793 79.5495 66.3408 80.3685C66.8374 81.1072 67.0171 81.9202 66.993 82.8007C66.9771 83.609 66.9904 84.4198 66.9904 85.2303H66.953C66.953 86.1749 66.9234 87.1224 66.9612 88.0679C67.0068 89.2115 67.2617 90.3066 68.0885 91.163C69.0038 92.108 70.0967 91.9975 70.7975 90.8973C70.9824 90.5968 71.1548 90.2451 71.1918 89.9011C71.3126 88.8357 71.4953 87.751 71.4175 86.6908C71.2374 84.124 71.4953 81.6657 72.7353 79.3616C72.9472 78.9755 73.0117 78.5108 73.1704 78.089C73.8441 76.3336 73.6347 74.6504 72.7624 73.0209L72.6364 72.7814C72.1961 71.9065 72.212 71.069 72.749 70.2207C73.1811 69.5388 73.5061 68.7843 73.9597 68.1157C74.9881 66.6152 74.8428 64.6715 72.8402 63.4986C71.7284 62.8485 71.4493 61.9732 71.4171 60.8351Z" fill="#11B0C8"/>
<path d="M66.2359 41.4419C67.2884 42.3009 68.515 42.6126 69.7739 42.156C71.0732 41.6861 71.6987 40.5962 71.8006 39.2247C71.9373 37.3833 72.2005 35.5792 72.6433 33.7778C73.1184 31.8396 71.9373 30.6392 69.7735 30.9402C69.8891 30.2906 70.0069 29.7755 70.0662 29.2518C70.2546 27.7002 69.1105 26.256 67.7523 26.4116C66.7162 26.5299 65.7522 26.9112 65.0166 27.7273C64.195 28.64 63.9078 30.0653 64.5819 31.0911C65.186 31.9987 65.0089 32.7257 64.5497 33.577C64.0798 34.4442 63.6344 35.3436 63.3472 36.2779C62.9628 37.5479 63.124 38.7879 64.1821 39.7385C64.8455 40.3305 65.5484 40.8804 66.2359 41.4419Z" fill="#11B0C8"/>
<path d="M372.936 112.915V113.173H372.192V115.111H371.892V113.173H371.147V112.915" fill="#11B0C8"/>
<path d="M373.14 112.915H373.564L374.2 114.77L374.831 112.915H375.253V115.111H374.974V113.826L374.976 113.589V113.259L374.345 115.111H374.052L373.406 113.259V113.324L373.421 113.571V115.111H373.14" fill="#11B0C8"/>
</svg>
