<svg width="19" height="19" viewBox="0 0 19 19" fill="none" xmlns="http://www.w3.org/2000/svg">
<path d="M0.920595 5.81606C0.093233 7.50187 -0.186084 9.40425 0.12177 11.2567C0.429624 13.1092 1.30923 14.819 2.63737 16.1466C3.96551 17.4742 5.67566 18.3531 7.52827 18.6601C9.38087 18.9672 11.2831 18.6871 12.9686 17.8591C13.8416 18.2321 14.6876 18.4771 15.4586 18.5401C16.3606 18.6141 17.3026 18.4451 17.9846 17.7631C18.7366 17.0111 18.8646 15.9471 18.7306 14.9511C18.6076 14.0411 18.2506 13.0311 17.7286 11.9901C18.112 10.4787 18.0961 8.89355 17.6826 7.39012C17.269 5.88668 16.4719 4.51648 15.3694 3.4138C14.2669 2.31112 12.8969 1.51379 11.3935 1.09995C9.89017 0.686107 8.30508 0.669951 6.79359 1.05306C5.74959 0.529065 4.7386 0.171065 3.82859 0.0470646C2.83159 -0.0879354 1.76659 0.0400646 1.01359 0.793065C0.331595 1.47606 0.162595 2.41906 0.236595 3.32106C0.300595 4.09406 0.546595 4.94106 0.920595 5.81606ZM2.32459 3.74506C2.27841 3.55203 2.24665 3.35582 2.22959 3.15806C2.18159 2.57206 2.31959 2.31606 2.42759 2.20806C2.54759 2.08806 2.85059 1.93306 3.55959 2.02906C3.75826 2.05573 3.97259 2.10106 4.20259 2.16506C3.50739 2.60351 2.87551 3.13512 2.32459 3.74506ZM16.6146 14.5821C16.673 14.7913 16.7178 15.004 16.7486 15.2191C16.8446 15.9281 16.6886 16.2311 16.5706 16.3491C16.4616 16.4581 16.2066 16.5961 15.6206 16.5481C15.4249 16.531 15.2307 16.4996 15.0396 16.4541C15.6474 15.9047 16.1772 15.2748 16.6146 14.5821ZM12.8846 15.6051C11.2076 14.7271 9.25959 13.2821 7.37759 11.4001C5.49759 9.52007 4.05359 7.57506 3.17459 5.90006C4.07571 4.54785 5.41802 3.55013 6.97259 3.07706C8.58072 2.58696 10.3115 2.69198 11.8486 3.37293C13.3857 4.05387 14.6263 5.26524 15.3438 6.78561C16.0613 8.30598 16.2076 10.0338 15.7561 11.6532C15.3045 13.2725 14.2852 14.6753 12.8846 15.6051ZM10.6076 16.5951C9.44659 16.8689 8.23488 16.8414 7.08746 16.5154C5.94003 16.1893 4.89497 15.5754 4.05145 14.732C3.20792 13.8886 2.59392 12.8436 2.26772 11.6962C1.94152 10.5488 1.91394 9.3371 2.18759 8.17607C3.15159 9.69207 4.43759 11.2881 5.96359 12.8141C7.49159 14.3421 9.08959 15.6301 10.6076 16.5951Z" fill="white"/>
</svg>
